<svg xmlns="http://www.w3.org/2000/svg" xmlns:xlink="http://www.w3.org/1999/xlink" width="356" zoomAndPan="magnify" viewBox="0 0 267 74.249996" height="99" preserveAspectRatio="xMidYMid meet" version="1.0"><defs><g/><clipPath id="e934b60f1b"><path d="M 34.625 0.648438 L 238.0625 0.648438 L 238.0625 65.140625 L 34.625 65.140625 Z M 34.625 0.648438 " clip-rule="nonzero"/></clipPath><clipPath id="56791639dd"><path d="M 45.5625 7.214844 L 225.984375 7.214844 L 225.984375 60.347656 L 45.5625 60.347656 Z M 45.5625 7.214844 " clip-rule="nonzero"/></clipPath><clipPath id="a57c7c1668"><path d="M 55.023438 14.910156 L 122.035156 14.910156 L 122.035156 53.648438 L 55.023438 53.648438 Z M 55.023438 14.910156 " clip-rule="nonzero"/></clipPath><clipPath id="87aa7f325e"><path d="M 72.941406 60.355469 L 194.058594 60.355469 L 194.058594 72.109375 L 72.941406 72.109375 Z M 72.941406 60.355469 " clip-rule="nonzero"/></clipPath><clipPath id="17149b97d8"><path d="M 122.039062 14.910156 L 215.984375 14.910156 L 215.984375 53.519531 L 122.039062 53.519531 Z M 122.039062 14.910156 " clip-rule="nonzero"/></clipPath></defs><g clip-path="url(#e934b60f1b)"><path stroke-linecap="butt" transform="matrix(0.7425, 0, 0, 0.7425, 34.62514, 0.647024)" fill="none" stroke-linejoin="miter" d="M -0.000188791 0.00190331 L 274.02132 0.00190331 L 274.02132 86.860082 L -0.000188791 86.860082 Z M -0.000188791 0.00190331 " stroke="#ff6233" stroke-width="2" stroke-opacity="1" stroke-miterlimit="4"/></g><g clip-path="url(#56791639dd)"><path stroke-linecap="butt" transform="matrix(0.7425, 0, 0, 0.7425, 45.562696, 7.21291)" fill="none" stroke-linejoin="miter" d="M -0.000264133 0.00260455 L 243.081604 0.00260455 L 243.081604 71.56195 L -0.000264133 71.56195 Z M -0.000264133 0.00260455 " stroke="#ff6233" stroke-width="4" stroke-opacity="1" stroke-miterlimit="4"/></g><g clip-path="url(#a57c7c1668)"><path fill="#ff6233" d="M 55.023438 14.910156 L 122.035156 14.910156 L 122.035156 53.648438 L 55.023438 53.648438 Z M 55.023438 14.910156 " fill-opacity="1" fill-rule="nonzero"/></g><g clip-path="url(#87aa7f325e)"><path fill="#0a192f" d="M 72.941406 60.355469 L 194.058594 60.355469 L 194.058594 72.109375 L 72.941406 72.109375 Z M 72.941406 60.355469 " fill-opacity="1" fill-rule="nonzero"/></g><g clip-path="url(#17149b97d8)"><path stroke-linecap="butt" transform="matrix(0.7425, 0, 0, 0.7425, 122.039407, 14.908894)" fill="none" stroke-linejoin="miter" d="M -0.000464119 0.00170054 L 126.525221 0.00170054 L 126.525221 52.174475 L -0.000464119 52.174475 Z M -0.000464119 0.00170054 " stroke="#ff6233" stroke-width="4" stroke-opacity="1" stroke-miterlimit="4"/></g><g fill="#0a192f" fill-opacity="1"><g transform="translate(78.382297, 45.045548)"><g><path d="M 18.90625 -16.53125 C 18.664062 -17.40625 18.234375 -18.320312 17.609375 -19.28125 C 16.984375 -20.238281 16.441406 -20.835938 15.984375 -21.078125 C 15.535156 -21.316406 14.46875 -21.4375 12.78125 -21.4375 L 11.8125 -21.4375 L 11.8125 -3.3125 C 11.8125 -2.71875 12.003906 -2.25 12.390625 -1.90625 C 12.773438 -1.5625 13.8125 -1.3125 15.5 -1.15625 L 15.5 0 L 4.78125 0 L 4.78125 -1.15625 C 6.34375 -1.257812 7.335938 -1.429688 7.765625 -1.671875 C 8.191406 -1.921875 8.40625 -2.414062 8.40625 -3.15625 L 8.40625 -21.4375 L 7.5 -21.4375 C 5.957031 -21.4375 4.957031 -21.359375 4.5 -21.203125 C 4.050781 -21.054688 3.492188 -20.5 2.828125 -19.53125 C 2.160156 -18.570312 1.675781 -17.570312 1.375 -16.53125 L 0.21875 -16.53125 L 0.21875 -22.6875 L 20 -22.6875 L 20 -16.53125 Z M 18.90625 -16.53125 "/></g></g></g><g fill="#ff6233" fill-opacity="1"><g transform="translate(74.230263, 68.858596)"><g><path d="M 5.46875 -5.78125 L 2.046875 -5.78125 L 2.046875 -3.8125 L 5.140625 -3.8125 L 5.140625 -2.796875 L 2.046875 -2.796875 L 2.046875 0 L 0.890625 0 L 0.890625 -6.8125 L 5.46875 -6.8125 Z M 5.46875 -5.78125 "/></g></g></g><g fill="#ff6233" fill-opacity="1"><g transform="translate(79.82046, 68.858596)"><g><path d="M 6.6875 -6.8125 L 6.6875 -2.828125 C 6.6875 -1.929688 6.421875 -1.226562 5.890625 -0.71875 C 5.367188 -0.207031 4.644531 0.046875 3.71875 0.046875 C 2.800781 0.046875 2.078125 -0.207031 1.546875 -0.71875 C 1.023438 -1.226562 0.765625 -1.929688 0.765625 -2.828125 L 0.765625 -6.8125 L 1.90625 -6.8125 L 1.90625 -2.828125 C 1.90625 -2.253906 2.066406 -1.800781 2.390625 -1.46875 C 2.722656 -1.144531 3.171875 -0.984375 3.734375 -0.984375 C 4.296875 -0.984375 4.734375 -1.144531 5.046875 -1.46875 C 5.367188 -1.789062 5.53125 -2.242188 5.53125 -2.828125 L 5.53125 -6.8125 Z M 6.6875 -6.8125 "/></g></g></g><g fill="#ff6233" fill-opacity="1"><g transform="translate(87.248133, 68.858596)"><g><path d="M 2.046875 -1.046875 L 5 -1.046875 L 5 0 L 0.890625 0 L 0.890625 -6.8125 L 2.046875 -6.8125 Z M 2.046875 -1.046875 "/></g></g></g><g fill="#ff6233" fill-opacity="1"><g transform="translate(92.439718, 68.858596)"><g><path d="M 2.046875 -1.046875 L 5 -1.046875 L 5 0 L 0.890625 0 L 0.890625 -6.8125 L 2.046875 -6.8125 Z M 2.046875 -1.046875 "/></g></g></g><g fill="#ff6233" fill-opacity="1"><g transform="translate(97.631304, 68.858596)"><g><path d="M 3.140625 -6.859375 C 4.015625 -6.859375 4.804688 -6.625 5.515625 -6.15625 L 5.046875 -5.15625 C 4.347656 -5.570312 3.679688 -5.78125 3.046875 -5.78125 C 2.703125 -5.78125 2.429688 -5.71875 2.234375 -5.59375 C 2.035156 -5.46875 1.9375 -5.289062 1.9375 -5.0625 C 1.9375 -4.84375 2.023438 -4.648438 2.203125 -4.484375 C 2.390625 -4.328125 2.617188 -4.210938 2.890625 -4.140625 C 3.160156 -4.066406 3.453125 -3.972656 3.765625 -3.859375 C 4.085938 -3.742188 4.382812 -3.625 4.65625 -3.5 C 4.9375 -3.375 5.164062 -3.175781 5.34375 -2.90625 C 5.519531 -2.632812 5.609375 -2.304688 5.609375 -1.921875 C 5.609375 -1.328125 5.367188 -0.851562 4.890625 -0.5 C 4.410156 -0.144531 3.789062 0.03125 3.03125 0.03125 C 2.519531 0.03125 2.019531 -0.0625 1.53125 -0.25 C 1.039062 -0.445312 0.613281 -0.710938 0.25 -1.046875 L 0.75 -2.03125 C 1.09375 -1.71875 1.46875 -1.472656 1.875 -1.296875 C 2.289062 -1.128906 2.6875 -1.046875 3.0625 -1.046875 C 3.457031 -1.046875 3.765625 -1.117188 3.984375 -1.265625 C 4.210938 -1.410156 4.328125 -1.613281 4.328125 -1.875 C 4.328125 -2.101562 4.234375 -2.296875 4.046875 -2.453125 C 3.867188 -2.617188 3.644531 -2.738281 3.375 -2.8125 C 3.101562 -2.882812 2.804688 -2.972656 2.484375 -3.078125 C 2.171875 -3.179688 1.878906 -3.296875 1.609375 -3.421875 C 1.335938 -3.546875 1.109375 -3.738281 0.921875 -4 C 0.742188 -4.269531 0.65625 -4.59375 0.65625 -4.96875 C 0.65625 -5.539062 0.878906 -6 1.328125 -6.34375 C 1.785156 -6.6875 2.390625 -6.859375 3.140625 -6.859375 Z M 3.140625 -6.859375 "/></g></g></g><g fill="#ff6233" fill-opacity="1"><g transform="translate(103.678436, 68.858596)"><g><path d="M 5.546875 -5.78125 L 3.390625 -5.78125 L 3.390625 0 L 2.234375 0 L 2.234375 -5.78125 L 0.09375 -5.78125 L 0.09375 -6.8125 L 5.546875 -6.8125 Z M 5.546875 -5.78125 "/></g></g></g><g fill="#ff6233" fill-opacity="1"><g transform="translate(109.307516, 68.858596)"><g><path d="M 5.296875 -1.53125 L 1.859375 -1.53125 L 1.203125 0 L 0.015625 0 L 3.015625 -6.8125 L 4.203125 -6.8125 L 7.171875 0 L 5.953125 0 Z M 4.859375 -2.5625 L 3.578125 -5.59375 L 2.28125 -2.5625 Z M 4.859375 -2.5625 "/></g></g></g><g fill="#ff6233" fill-opacity="1"><g transform="translate(116.482413, 68.858596)"><g><path d="M 3.90625 -6.84375 C 4.394531 -6.84375 4.863281 -6.75 5.3125 -6.5625 C 5.769531 -6.375 6.164062 -6.117188 6.5 -5.796875 L 5.828125 -4.953125 C 5.585938 -5.222656 5.296875 -5.4375 4.953125 -5.59375 C 4.617188 -5.75 4.28125 -5.828125 3.9375 -5.828125 C 3.25 -5.828125 2.671875 -5.59375 2.203125 -5.125 C 1.734375 -4.65625 1.5 -4.085938 1.5 -3.421875 C 1.5 -2.753906 1.734375 -2.1875 2.203125 -1.71875 C 2.671875 -1.25 3.25 -1.015625 3.9375 -1.015625 C 4.644531 -1.015625 5.273438 -1.285156 5.828125 -1.828125 L 6.515625 -1.078125 C 6.160156 -0.734375 5.75 -0.457031 5.28125 -0.25 C 4.8125 -0.0507812 4.34375 0.046875 3.875 0.046875 C 2.875 0.046875 2.03125 -0.285156 1.34375 -0.953125 C 0.664062 -1.617188 0.328125 -2.441406 0.328125 -3.421875 C 0.328125 -4.390625 0.671875 -5.203125 1.359375 -5.859375 C 2.054688 -6.515625 2.90625 -6.84375 3.90625 -6.84375 Z M 3.90625 -6.84375 "/></g></g></g><g fill="#ff6233" fill-opacity="1"><g transform="translate(123.2587, 68.858596)"><g><path d="M 5.4375 0 L 3.203125 -3.015625 L 2.046875 -1.734375 L 2.046875 0 L 0.890625 0 L 0.890625 -6.8125 L 2.046875 -6.8125 L 2.046875 -3.296875 L 5.296875 -6.8125 L 6.65625 -6.8125 L 4.015625 -3.90625 L 6.828125 0 Z M 5.4375 0 "/></g></g></g><g fill="#ff6233" fill-opacity="1"><g transform="translate(130.239158, 68.858596)"><g/></g></g><g fill="#ff6233" fill-opacity="1"><g transform="translate(132.747451, 68.858596)"><g><path d="M 0.890625 -6.8125 L 3.6875 -6.8125 C 4.707031 -6.8125 5.550781 -6.488281 6.21875 -5.84375 C 6.882812 -5.207031 7.21875 -4.394531 7.21875 -3.40625 C 7.21875 -2.414062 6.878906 -1.597656 6.203125 -0.953125 C 5.535156 -0.316406 4.6875 0 3.65625 0 L 0.890625 0 Z M 2.046875 -5.78125 L 2.046875 -1.03125 L 3.71875 -1.03125 C 4.382812 -1.03125 4.941406 -1.25 5.390625 -1.6875 C 5.835938 -2.132812 6.0625 -2.703125 6.0625 -3.390625 C 6.0625 -4.078125 5.832031 -4.644531 5.375 -5.09375 C 4.914062 -5.550781 4.347656 -5.78125 3.671875 -5.78125 Z M 2.046875 -5.78125 "/></g></g></g><g fill="#ff6233" fill-opacity="1"><g transform="translate(140.282065, 68.858596)"><g><path d="M 5.765625 -5.78125 L 2.046875 -5.78125 L 2.046875 -3.9375 L 5.375 -3.9375 L 5.375 -2.90625 L 2.046875 -2.90625 L 2.046875 -1.03125 L 5.875 -1.03125 L 5.875 0 L 0.890625 0 L 0.890625 -6.8125 L 5.765625 -6.8125 Z M 5.765625 -5.78125 "/></g></g></g><g fill="#ff6233" fill-opacity="1"><g transform="translate(146.659751, 68.858596)"><g><path d="M 3.9375 0 L 2.75 0 L 0.03125 -6.8125 L 1.265625 -6.8125 L 3.375 -1.28125 L 5.484375 -6.8125 L 6.6875 -6.8125 Z M 3.9375 0 "/></g></g></g><g fill="#ff6233" fill-opacity="1"><g transform="translate(153.36798, 68.858596)"><g><path d="M 5.765625 -5.78125 L 2.046875 -5.78125 L 2.046875 -3.9375 L 5.375 -3.9375 L 5.375 -2.90625 L 2.046875 -2.90625 L 2.046875 -1.03125 L 5.875 -1.03125 L 5.875 0 L 0.890625 0 L 0.890625 -6.8125 L 5.765625 -6.8125 Z M 5.765625 -5.78125 "/></g></g></g><g fill="#ff6233" fill-opacity="1"><g transform="translate(159.745667, 68.858596)"><g><path d="M 2.046875 -1.046875 L 5 -1.046875 L 5 0 L 0.890625 0 L 0.890625 -6.8125 L 2.046875 -6.8125 Z M 2.046875 -1.046875 "/></g></g></g><g fill="#ff6233" fill-opacity="1"><g transform="translate(164.937252, 68.858596)"><g><path d="M 1.375 -5.859375 C 2.070312 -6.515625 2.925781 -6.84375 3.9375 -6.84375 C 4.957031 -6.84375 5.8125 -6.515625 6.5 -5.859375 C 7.195312 -5.203125 7.546875 -4.382812 7.546875 -3.40625 C 7.546875 -2.4375 7.195312 -1.617188 6.5 -0.953125 C 5.8125 -0.285156 4.957031 0.046875 3.9375 0.046875 C 2.925781 0.046875 2.070312 -0.285156 1.375 -0.953125 C 0.675781 -1.617188 0.328125 -2.4375 0.328125 -3.40625 C 0.328125 -4.382812 0.675781 -5.203125 1.375 -5.859375 Z M 3.953125 -5.8125 C 3.273438 -5.8125 2.695312 -5.578125 2.21875 -5.109375 C 1.738281 -4.648438 1.5 -4.082031 1.5 -3.40625 C 1.5 -2.726562 1.738281 -2.15625 2.21875 -1.6875 C 2.707031 -1.21875 3.285156 -0.984375 3.953125 -0.984375 C 4.617188 -0.984375 5.1875 -1.21875 5.65625 -1.6875 C 6.132812 -2.15625 6.375 -2.726562 6.375 -3.40625 C 6.375 -4.082031 6.132812 -4.648438 5.65625 -5.109375 C 5.1875 -5.578125 4.617188 -5.8125 3.953125 -5.8125 Z M 3.953125 -5.8125 "/></g></g></g><g fill="#ff6233" fill-opacity="1"><g transform="translate(172.812141, 68.858596)"><g><path d="M 0.890625 -6.8125 L 3.609375 -6.8125 C 4.460938 -6.8125 5.125 -6.609375 5.59375 -6.203125 C 6.070312 -5.796875 6.3125 -5.222656 6.3125 -4.484375 C 6.3125 -3.710938 6.070312 -3.113281 5.59375 -2.6875 C 5.125 -2.257812 4.460938 -2.046875 3.609375 -2.046875 L 2.046875 -2.046875 L 2.046875 0 L 0.890625 0 Z M 2.046875 -5.78125 L 2.046875 -3.078125 L 3.5625 -3.078125 C 4.65625 -3.078125 5.203125 -3.535156 5.203125 -4.453125 C 5.203125 -5.335938 4.65625 -5.78125 3.5625 -5.78125 Z M 2.046875 -5.78125 "/></g></g></g><g fill="#ff6233" fill-opacity="1"><g transform="translate(179.355104, 68.858596)"><g><path d="M 5.765625 -5.78125 L 2.046875 -5.78125 L 2.046875 -3.9375 L 5.375 -3.9375 L 5.375 -2.90625 L 2.046875 -2.90625 L 2.046875 -1.03125 L 5.875 -1.03125 L 5.875 0 L 0.890625 0 L 0.890625 -6.8125 L 5.765625 -6.8125 Z M 5.765625 -5.78125 "/></g></g></g><g fill="#ff6233" fill-opacity="1"><g transform="translate(185.732791, 68.858596)"><g><path d="M 5.21875 0 L 3.96875 -2.0625 C 3.90625 -2.050781 3.800781 -2.046875 3.65625 -2.046875 L 2.046875 -2.046875 L 2.046875 0 L 0.890625 0 L 0.890625 -6.8125 L 3.65625 -6.8125 C 4.53125 -6.8125 5.207031 -6.609375 5.6875 -6.203125 C 6.164062 -5.796875 6.40625 -5.222656 6.40625 -4.484375 C 6.40625 -3.941406 6.28125 -3.484375 6.03125 -3.109375 C 5.789062 -2.734375 5.445312 -2.457031 5 -2.28125 L 6.515625 0 Z M 2.046875 -3.078125 L 3.65625 -3.078125 C 4.757812 -3.078125 5.3125 -3.535156 5.3125 -4.453125 C 5.3125 -5.335938 4.757812 -5.78125 3.65625 -5.78125 L 2.046875 -5.78125 Z M 2.046875 -3.078125 "/></g></g></g><g fill="#ff6233" fill-opacity="1"><g transform="translate(128.846739, 45.187857)"><g><path d="M 12.09375 -1.65625 C 12.269531 -1.226562 12.46875 -0.914062 12.6875 -0.71875 C 12.914062 -0.519531 13.132812 -0.410156 13.34375 -0.390625 L 13.34375 0 C 12.550781 -0.0390625 11.546875 -0.0625 10.328125 -0.0625 C 8.984375 -0.0625 7.984375 -0.0390625 7.328125 0 L 7.328125 -0.390625 C 7.828125 -0.421875 8.179688 -0.484375 8.390625 -0.578125 C 8.597656 -0.679688 8.703125 -0.859375 8.703125 -1.109375 C 8.703125 -1.347656 8.625 -1.664062 8.46875 -2.0625 L 7.28125 -5.3125 L 2.96875 -5.3125 L 2.453125 -3.9375 C 2.085938 -2.988281 1.90625 -2.253906 1.90625 -1.734375 C 1.90625 -1.253906 2.050781 -0.914062 2.34375 -0.71875 C 2.644531 -0.53125 3.082031 -0.421875 3.65625 -0.390625 L 3.65625 0 C 2.757812 -0.0390625 1.941406 -0.0625 1.203125 -0.0625 C 0.597656 -0.0625 0.0976562 -0.0390625 -0.296875 0 L -0.296875 -0.390625 C 0.347656 -0.515625 0.914062 -1.207031 1.40625 -2.46875 L 5.921875 -14.0625 C 6.066406 -14.039062 6.296875 -14.03125 6.609375 -14.03125 C 6.929688 -14.03125 7.15625 -14.039062 7.28125 -14.0625 Z M 7.140625 -5.703125 L 5.1875 -11.046875 L 3.125 -5.703125 Z M 7.140625 -5.703125 "/></g></g></g><g fill="#ff6233" fill-opacity="1"><g transform="translate(142.483727, 45.187857)"><g><path d="M 4.515625 -1.84375 C 4.515625 -1.300781 4.601562 -0.925781 4.78125 -0.71875 C 4.96875 -0.519531 5.300781 -0.421875 5.78125 -0.421875 L 5.78125 0 C 4.40625 -0.0507812 3.519531 -0.078125 3.125 -0.078125 C 2.675781 -0.078125 1.765625 -0.0507812 0.390625 0 L 0.390625 -0.421875 C 0.859375 -0.421875 1.1875 -0.519531 1.375 -0.71875 C 1.5625 -0.925781 1.65625 -1.300781 1.65625 -1.84375 L 1.65625 -13.125 C 1.65625 -13.726562 1.5625 -14.171875 1.375 -14.453125 C 1.1875 -14.734375 0.859375 -14.875 0.390625 -14.875 L 0.390625 -15.28125 C 0.816406 -15.238281 1.226562 -15.21875 1.625 -15.21875 C 2.769531 -15.21875 3.734375 -15.3125 4.515625 -15.5 Z M 4.515625 -1.84375 "/></g></g></g><g fill="#ff6233" fill-opacity="1"><g transform="translate(149.074704, 45.187857)"><g><path d="M 10.21875 -2.171875 C 10.21875 -1.566406 10.304688 -1.125 10.484375 -0.84375 C 10.671875 -0.570312 11.003906 -0.4375 11.484375 -0.4375 L 11.484375 -0.015625 C 11.078125 -0.0546875 10.664062 -0.078125 10.25 -0.078125 C 9.082031 -0.078125 8.117188 0.015625 7.359375 0.203125 L 7.359375 -1.5 C 6.910156 -0.3125 6.054688 0.28125 4.796875 0.28125 C 3.554688 0.28125 2.566406 -0.171875 1.828125 -1.078125 C 1.097656 -1.984375 0.738281 -3.347656 0.75 -5.171875 C 0.75 -6.328125 0.9375 -7.300781 1.3125 -8.09375 C 1.6875 -8.894531 2.207031 -9.5 2.875 -9.90625 C 3.539062 -10.3125 4.304688 -10.515625 5.171875 -10.515625 C 6.128906 -10.515625 6.859375 -10.265625 7.359375 -9.765625 L 7.359375 -13.125 C 7.359375 -13.726562 7.265625 -14.171875 7.078125 -14.453125 C 6.890625 -14.734375 6.5625 -14.875 6.09375 -14.875 L 6.09375 -15.28125 C 6.519531 -15.238281 6.929688 -15.21875 7.328125 -15.21875 C 8.472656 -15.21875 9.4375 -15.3125 10.21875 -15.5 Z M 5.609375 -0.578125 C 6.035156 -0.578125 6.414062 -0.734375 6.75 -1.046875 C 7.09375 -1.367188 7.296875 -1.800781 7.359375 -2.34375 L 7.359375 -9.265625 C 7.035156 -9.710938 6.554688 -9.9375 5.921875 -9.9375 C 5.222656 -9.9375 4.679688 -9.53125 4.296875 -8.71875 C 3.910156 -7.914062 3.722656 -6.71875 3.734375 -5.125 C 3.722656 -3.519531 3.878906 -2.359375 4.203125 -1.640625 C 4.523438 -0.929688 4.992188 -0.578125 5.609375 -0.578125 Z M 5.609375 -0.578125 "/></g></g></g><g fill="#ff6233" fill-opacity="1"><g transform="translate(161.346038, 45.187857)"><g><path d="M 5.578125 -10.515625 C 7.097656 -10.515625 8.285156 -10.082031 9.140625 -9.21875 C 10.003906 -8.351562 10.4375 -6.984375 10.4375 -5.109375 C 10.4375 -3.234375 10.003906 -1.863281 9.140625 -1 C 8.285156 -0.144531 7.097656 0.28125 5.578125 0.28125 C 4.078125 0.28125 2.894531 -0.144531 2.03125 -1 C 1.164062 -1.863281 0.734375 -3.234375 0.734375 -5.109375 C 0.734375 -6.984375 1.164062 -8.351562 2.03125 -9.21875 C 2.894531 -10.082031 4.078125 -10.515625 5.578125 -10.515625 Z M 5.578125 -10.109375 C 5.015625 -10.109375 4.5625 -9.695312 4.21875 -8.875 C 3.882812 -8.050781 3.71875 -6.796875 3.71875 -5.109375 C 3.71875 -3.421875 3.882812 -2.164062 4.21875 -1.34375 C 4.5625 -0.53125 5.015625 -0.125 5.578125 -0.125 C 6.160156 -0.125 6.613281 -0.523438 6.9375 -1.328125 C 7.269531 -2.140625 7.4375 -3.398438 7.4375 -5.109375 C 7.4375 -6.804688 7.269531 -8.0625 6.9375 -8.875 C 6.601562 -9.695312 6.148438 -10.109375 5.578125 -10.109375 Z M 5.578125 -10.109375 "/></g></g></g></svg>